# xmcd
#
# Track frame offsets: 
#        150
#        16320
#        27007
#        43806
#        55382
#        72287
#        89601
#        101350
#        111831
#        123345
#        135596
#        145008
#        163051
#        176554
#
# Disc length: 2869 seconds
#
# Revision: 0
# Processed by: cddbd v1.5.2PL0 Copyright (c) Steve Scherf et al.
# Submitted via: ExactAudioCopyFreeDBPlugin 1.0
#
DISCID=bd0b330e
DTITLE=Tennessee Menace - 'N Every Sin's Alright
DYEAR=2008
DGENRE=Country
TTITLE0=Daynight Rock
TTITLE1=Dancin' With The Damned
TTITLE2=Tennessee Menace
TTITLE3=Rockabillity
TTITLE4=Stay Away Blues
TTITLE5=Shake The Bacon
TTITLE6='N Every Sin's Alright!
TTITLE7=My Skythe
TTITLE8=Second Sight Psycho
TTITLE9=Puttin' On The Style
TTITLE10=Mad Dog Blues
TTITLE11=Stranger From The South
TTITLE12=Necrophilia
TTITLE13=Silent Hill
EXTD=
EXTT0=
EXTT1=
EXTT2=
EXTT3=
EXTT4=
EXTT5=
EXTT6=
EXTT7=
EXTT8=
EXTT9=
EXTT10=
EXTT11=
EXTT12=
EXTT13=
PLAYORDER=
